<?xml version="1.0" encoding="UTF-8" standalone="no"?>
<svg
   xmlns:dc="http://purl.org/dc/elements/1.1/"
   xmlns:cc="http://creativecommons.org/ns#"
   xmlns:rdf="http://www.w3.org/1999/02/22-rdf-syntax-ns#"
   xmlns:svg="http://www.w3.org/2000/svg"
   xmlns="http://www.w3.org/2000/svg"
   xmlns:sodipodi="http://sodipodi.sourceforge.net/DTD/sodipodi-0.dtd"
   xmlns:inkscape="http://www.inkscape.org/namespaces/inkscape"
   width="1792"
   height="1792"
   viewBox="0 0 1792 1792"
   id="svg2"
   version="1.1"
   inkscape:version="0.91 r13725"
   sodipodi:docname="ambulance.svg">
  <metadata
     id="metadata10">
    <rdf:RDF>
      <cc:Work
         rdf:about="">
        <dc:format>image/svg+xml</dc:format>
        <dc:type
           rdf:resource="http://purl.org/dc/dcmitype/StillImage" />
      </cc:Work>
    </rdf:RDF>
  </metadata>
  <defs
     id="defs8" />
  <sodipodi:namedview
     pagecolor="#ffffff"
     bordercolor="#666666"
     borderopacity="1"
     objecttolerance="10"
     gridtolerance="10"
     guidetolerance="10"
     inkscape:pageopacity="0"
     inkscape:pageshadow="2"
     inkscape:window-width="1440"
     inkscape:window-height="838"
     id="namedview6"
     showgrid="false"
     inkscape:zoom="4.2142857"
     inkscape:cx="36.452765"
     inkscape:cy="1831.06"
     inkscape:window-x="-8"
     inkscape:window-y="-8"
     inkscape:window-maximized="1"
     inkscape:current-layer="svg2" />
  <path
     d="m -9.5938048,-17.689079 q 0,-1.42538 -1.0085242,-2.433867 -1.008525,-1.008488 -2.433907,-1.008488 -1.425382,0 -2.433907,1.008488 -1.008525,1.008487 -1.008525,2.433867 0,1.42538 1.008525,2.433869 1.008525,1.008688 2.433907,1.008688 1.425382,0 2.433907,-1.008688 1.0085242,-1.008489 1.0085242,-2.433869 z m -10.3272942,-13.769622 10.3272942,0 0,-6.88491 -4.2492512,0 q -0.376516,0.0539 -0.591668,0.241988 l -5.244329,5.244298 q -0.188258,0.322851 -0.242046,0.591795 l 0,0.806829 z m 34.424312,13.769622 q 0,-1.42538 -1.008522,-2.433867 -1.008527,-1.008488 -2.433908,-1.008488 -1.425382,0 -2.433906,1.008488 -1.008526,1.008487 -1.008526,2.433867 0,1.42538 1.008526,2.433869 1.008524,1.008688 2.433906,1.008688 1.425381,0 2.433908,-1.008688 1.008522,-1.008489 1.008522,-2.433869 z m 3.442431,-18.072716 0,-5.163633 q 0,-0.37656 -0.242043,-0.61855 -0.242048,-0.241988 -0.618563,-0.241988 l -6.024255,0 0,-6.024373 q 0,-0.376561 -0.242045,-0.618549 -0.242047,-0.24199 -0.618563,-0.24199 l -5.163646,0 q -0.376517,0 -0.618562,0.24199 -0.242047,0.241988 -0.242047,0.618549 l 0,6.024373 -6.0242544,0 q -0.3765167,0 -0.6185618,0.241988 -0.242045,0.24199 -0.242045,0.61855 l 0,5.163633 q 0,0.376561 0.242045,0.618551 0.2420451,0.241988 0.6185618,0.241988 l 6.0242544,0 0,6.024373 q 0,0.376561 0.242047,0.618549 0.242045,0.24199 0.618562,0.24199 l 5.163646,0 q 0.376516,0 0.618563,-0.24199 0.242045,-0.241988 0.242045,-0.618549 l 0,-6.024373 6.024255,0 q 0.376515,0 0.618563,-0.241988 0.242043,-0.24199 0.242043,-0.618551 z m 6.884864,-14.630361 0,30.981999 q 0,0.699214 -0.510986,1.210146 -0.510984,0.510932 -1.210229,0.510932 l -5.163649,0 q 0,2.85076 -2.017048,4.867937 -2.017049,2.016975 -4.867813,2.016975 -2.850762,0 -4.867814,-2.016975 -2.017049,-2.017177 -2.017049,-4.867937 l -10.3272934,0 q 0,2.85076 -2.0170495,4.867937 -2.0170501,2.016975 -4.8678131,2.016975 -2.850763,0 -4.867813,-2.016975 -2.01705,-2.017177 -2.01705,-4.867937 l -3.442431,0 q -0.699246,0 -1.21023,-0.510932 -0.510986,-0.510932 -0.510986,-1.210146 0,-0.699412 0.510986,-1.210345 0.510984,-0.510932 1.21023,-0.510932 l 0,-11.188005 q 0,-0.699213 0.34962,-1.559752 0.349623,-0.860539 0.860609,-1.371672 l 5.325012,-5.324959 q 0.510986,-0.510932 1.371593,-0.860539 0.860608,-0.349605 1.559852,-0.349605 l 4.3030392,0 0,-8.60619 q 0,-0.699212 0.5109859,-1.210145 0.5109858,-0.511132 1.2102299,-0.511132 l 30.981882,0 q 0.699245,0 1.210229,0.511132 0.510986,0.510933 0.510986,1.210145 z"
     id="path4"
     inkscape:connector-curvature="0" />
</svg>
